<?xml version="1.0" encoding="UTF-8"?><svg id="Layer_2" xmlns="http://www.w3.org/2000/svg" width="115.65" height="104.86" xmlns:xlink="http://www.w3.org/1999/xlink" viewBox="0 0 115.65 104.86"><defs><style>.cls-1{fill:url(#linear-gradient-2);}.cls-2{fill:url(#linear-gradient-3);}.cls-3{fill:url(#linear-gradient);}</style><linearGradient id="linear-gradient" x1="98.77" y1="79.63" x2="26.19" y2="7.05" gradientTransform="matrix(1, 0, 0, 1, 0, 0)" gradientUnits="userSpaceOnUse"><stop offset="0" stop-color="#414042"/><stop offset="1" stop-color="#bcbec0"/></linearGradient><linearGradient id="linear-gradient-2" x1="73.45" y1="77.27" x2="27.75" y2="31.57" xlink:href="#linear-gradient"/><linearGradient id="linear-gradient-3" x1="53.14" y1="56.79" x2="48" y2="51.65" xlink:href="#linear-gradient"/></defs><g id="Layer_1-2"><g id="Air-Systems_Color"><path class="cls-3" d="M108.03,3.73c.56-2.07,1.45-3.57,3.58-3.71,1.93-.13,3.27,.82,3.74,2.68,.28,1.1,.29,2.29,.29,3.43,.02,17.57,.01,35.13,0,52.7,0,.84,.03,1.69-.07,2.52-.22,1.83-1.13,3.19-3.03,3.56-1.77,.34-3.05-.47-3.93-1.98-.26-.44-.48-.89-.69-1.3h-7.14c-.44,1.82-.84,3.55-1.29,5.26-6.16,23.93-28.9,39.97-53.52,37.76C22.93,102.58,3.8,84.69,.53,61.63-3.65,32.04,17.36,7.89,42.85,4.38c4.55-.63,9.22-.6,13.83-.62,15.88-.07,31.77-.03,47.65-.03,1.15,0,2.3,0,3.7,0Zm-17.94,50.6c.52-19.17-14.94-39.4-39.24-39.69-21.87-.26-39.68,17.52-39.8,39.17-.12,22.13,17.57,40.2,39.58,40.01,24.08-.21,39.78-20.02,39.46-39.49Z"/><path class="cls-1" d="M57.92,39.21c3.34-4.16,6.69-8.33,10.48-13.06,.72,3.97,1.25,7.39,1.98,10.77,.97,4.45,.28,8.32-3.41,11.78,5.09-.52,10.18-1.05,15.26-1.57l.52,.65c-3.03,3.95-5.88,8.05-9.16,11.77-1.91,2.17-4.86,2.23-7.93,2.09l12.98,10.42c-3.06,.55-5.47,.99-7.88,1.43-1.55,.28-3.09,.59-4.64,.83-4.01,.61-6.29-.39-10.21-4.69,.66,5.78,1.27,11.08,1.96,17.13-1.62-1.12-2.76-1.9-3.89-2.7-1.72-1.21-3.37-2.52-5.14-3.63-3.75-2.37-6.04-5.47-5.51-10.15,.04-.37-.23-.78-.35-1.17,.15,.05,.29,.1,.08,.03,.23,.07,.1,.03-.03,0-3.29,4.27-6.58,8.54-10.35,13.43-.87-5.41-1.76-9.99-2.28-14.61-.26-2.33,.71-4.5,2.41-6.24,.56-.57,1.05-1.2,1.57-1.81l.3-.16-.25,.22c-3.54,.3-7.08,.59-10.61,.89-1.65,.14-3.3,.3-4.94,.45l-.47-.57c2.94-3.89,5.69-7.93,8.88-11.6,2.06-2.37,5.14-2.55,8.35-2.26l-12.62-10.06,.16-.66c4.49-.7,8.97-1.49,13.48-2.06,2.67-.34,4.91,.8,6.75,2.72,.48,.5,.95,1,1.86,1.95l-1.99-17.33c4.56,3.45,8.7,6.26,12.4,9.57,1.28,1.15,1.53,3.52,2.1,5.38,.27,.87,.16,1.85,.22,2.78l-.22,.08,.15-.02Zm-17.98,14.99c-.01,5.94,4.57,10.67,10.45,10.77,5.93,.11,10.87-4.76,10.89-10.72,.01-5.86-4.69-10.67-10.52-10.75-6.04-.08-10.8,4.63-10.82,10.7Z"/><path class="cls-2" d="M54.16,54.11c.06,1.98-1.48,3.71-3.39,3.82-1.89,.12-3.64-1.48-3.77-3.43-.14-2.13,1.48-3.95,3.53-3.97,1.93-.02,3.57,1.6,3.62,3.58Z"/></g></g></svg>