<?xml version="1.0" encoding="UTF-8"?><svg id="Layer_2" xmlns="http://www.w3.org/2000/svg" width="127.64" height="112.27" xmlns:xlink="http://www.w3.org/1999/xlink" viewBox="0 0 127.64 112.27"><defs><style>.cls-1{fill:url(#linear-gradient-2);}.cls-2{fill:url(#linear-gradient-6);}.cls-3{fill:url(#linear-gradient-10);}.cls-4{fill:url(#linear-gradient-5);}.cls-5{fill:url(#linear-gradient-7);}.cls-6{fill:url(#linear-gradient-9);}.cls-7{fill:url(#linear-gradient-3);}.cls-8{fill:url(#linear-gradient);}.cls-9{fill:url(#linear-gradient-4);}.cls-10{fill:url(#linear-gradient-8);}</style><linearGradient id="linear-gradient" x1="47.35" y1="114.52" x2="47.35" y2="2.87" gradientTransform="matrix(1, 0, 0, 1, 0, 0)" gradientUnits="userSpaceOnUse"><stop offset="0" stop-color="#2b3990"/><stop offset=".13" stop-color="#283f95"/><stop offset=".32" stop-color="#2153a5"/><stop offset=".55" stop-color="#1573bf"/><stop offset=".81" stop-color="#059fe3"/><stop offset=".88" stop-color="#00aeef"/><stop offset="1" stop-color="#00aeef"/></linearGradient><linearGradient id="linear-gradient-2" x1="48.41" y1="114.52" x2="48.41" y2="2.87" xlink:href="#linear-gradient"/><linearGradient id="linear-gradient-3" x1="47.32" y1="114.52" x2="47.32" y2="2.87" xlink:href="#linear-gradient"/><linearGradient id="linear-gradient-4" x1="48.49" y1="114.52" x2="48.49" y2="2.87" xlink:href="#linear-gradient"/><linearGradient id="linear-gradient-5" x1="107.61" y1="114.52" x2="107.61" y2="2.87" xlink:href="#linear-gradient"/><linearGradient id="linear-gradient-6" x1="117.28" y1="114.52" x2="117.28" y2="2.87" xlink:href="#linear-gradient"/><linearGradient id="linear-gradient-7" x1="112.29" y1="114.52" x2="112.29" y2="2.87" xlink:href="#linear-gradient"/><linearGradient id="linear-gradient-8" x1="112.57" y1="114.52" x2="112.57" y2="2.87" xlink:href="#linear-gradient"/><linearGradient id="linear-gradient-9" x1="125.32" y1="114.52" x2="125.32" y2="2.87" xlink:href="#linear-gradient"/><linearGradient id="linear-gradient-10" x1="99.34" y1="114.52" x2="99.34" y2="2.87" xlink:href="#linear-gradient"/></defs><g id="Layer_1-2"><g id="Water-Systems_Color"><path class="cls-8" d="M11.08,31.65c-.08-1.76,.52-2.44,2.35-2.43,22.6,.05,45.2,.05,67.8,0,1.82,0,2.45,.65,2.37,2.42-.1,2.43-.03,4.86-.03,7.46,2.24,0,3.98-.03,5.71,0,3.52,.09,5.34,1.79,5.36,5.23,.05,9.92,.05,19.84,0,29.77-.02,3.45-1.86,5.15-5.37,5.22-1.81,.03-3.61,0-5.7,0,0,2.75-.07,5.12,.02,7.49,.07,1.77-.53,2.48-2.37,2.4-2.8-.12-5.61-.03-8.45-.03-.11,2.35-.19,4.23-.27,6.06h-11.21v-5.9h-27.65c-.09,2.03-.18,3.91-.27,5.95h-11.03c-.09-1.99-.17-3.88-.27-6.11-2.96,0-5.79-.09-8.6,.03-1.83,.08-2.46-.64-2.4-2.4,.08-2.43,.02-4.86,.02-7.49-1.4,0-2.3,0-3.21,0-1.01,0-2.02,.04-3.03-.01-2.83-.14-4.77-1.85-4.79-4.64-.09-10.29-.08-20.58,0-30.87,.02-2.79,1.98-4.56,4.77-4.67,1.92-.08,3.84-.01,6.27-.01,0-2.72,.08-5.09-.03-7.46Zm13.33,24.73c1.34,.22,2.74,.1,4.12,.1,13.31,0,26.61,0,39.92,0,.83,0,1.67,.08,2.47-.09,.4-.08,1.06-.76,.99-.94-.19-.47-.64-.9-1.09-1.19-.26-.17-.71-.03-1.08-.03-15.05,0-30.1,0-45.15,0-.45,0-.89,.08-1.34,.12l-.48,.64c.55,.48,1.04,1.28,1.65,1.38Zm45.22-15.55c.77,0,1.53-.72,2.3-1.1-.8-.37-1.6-1.06-2.41-1.06-14.69-.06-29.37-.06-44.06,0-.81,0-1.62,.66-2.43,1.02,.84,.39,1.68,1.12,2.53,1.13,7.25,.09,14.5,.05,21.75,.05,7.44,0,14.87,.04,22.3-.05Zm-43.21,5.56c-.82,0-1.68-.05-2.46,.14-.37,.09-.87,.71-.85,1.08,.02,.35,.56,.83,.97,.98,.49,.18,1.09,.07,1.64,.07,14.5,0,29-.01,43.5-.02,.37,0,.78,.11,1.09-.03,.57-.25,1.08-.65,1.62-.98-.58-.41-1.13-1.13-1.73-1.17-2.29-.14-4.59-.06-6.88-.06-5.23,0-10.46,0-15.69,0v-.02c-7.07,0-14.13,0-21.2,0Zm42.95,17.84c.86-.01,1.71-.76,2.56-1.17-.8-.35-1.6-1-2.41-1-14.7-.06-29.4-.06-44.09,0-.8,0-1.6,.64-2.4,.98,.84,.41,1.68,1.18,2.52,1.19,7.35,.09,14.7,.05,22.05,.05h0c7.26,0,14.51,.03,21.77-.06Zm.16,7.79c.8,0,1.6-.69,2.4-1.07-.76-.39-1.52-1.12-2.28-1.12-14.79-.06-29.57-.06-44.36,0-.76,0-1.51,.73-2.26,1.13,.8,.37,1.6,1.04,2.41,1.05,7.35,.08,14.69,.05,22.04,.05,7.35,0,14.69,.04,22.04-.04Zm-43.97,5.58c-.84,.01-1.68,.75-2.52,1.14,.8,.36,1.6,1.04,2.4,1.04,14.7,.06,29.4,.06,44.1,0,.8,0,1.6-.7,2.39-1.07-.85-.39-1.69-1.11-2.55-1.12-7.26-.09-14.52-.05-21.77-.05-7.35,0-14.7-.03-22.05,.06Z"/><path class="cls-1" d="M5.62,106.06q-.73,6.21,5.1,6.21c25.15,0,50.29,0,75.44,0,5.8,0,5.92-.15,4.85-6.21H5.62Z"/><path class="cls-7" d="M72.36,26.72c.81-5.09-3.21-9.92-8.14-9.94-13.12-.03-26.25-.01-39.37-.09-2.05-.01-2.78,.71-2.66,2.74,.14,2.36,.03,4.74,.03,7.29h50.14Z"/><path class="cls-9" d="M5.75,103.5H91.23c-3.12-2.97-4.95-6.24-10.05-6.16-21.19,.33-42.4,.34-63.59,0-5.31-.09-8.94,1.55-11.84,6.17Z"/><path class="cls-4" d="M111.21,36.45c-4.23-.04-7.06,2.24-7.1,6.14-.13,11.09-.12,22.18,0,33.27,.04,3.84,2.96,6.18,7.11,6.06V36.45Z"/><path class="cls-2" d="M113.83,81.9c3.96,.04,6.78-2.32,6.81-6.05,.11-11.09,.1-22.18,0-33.27-.04-3.76-2.79-6.08-6.81-6.08v45.4Z"/><path class="cls-5" d="M126.59,16.74c.3-4.11-.13-4.42-7.63-5.4,0-2.94-.08-5.94,.03-8.93,.06-1.76-.47-2.49-2.33-2.41-2.75,.13-5.51,.11-8.26,0-1.71-.07-2.26,.62-2.22,2.25,.08,3.01,.02,6.02,.02,8.49-2.71,.94-5.05,1.52-7.12,2.61-.71,.37-.74,2.04-1.17,3.38h28.67Z"/><path class="cls-10" d="M98.45,19.31c-.44,3.85,.89,5.56,4.61,5.38,2.63-.13,3.38,.82,3.18,3.28-.16,2.09,0,4.21,.05,6.32,0,.16,.15,.33,.11,.25h12.48v-9.54c3.61-.55,8.62,.75,7.81-5.69h-28.23Z"/><path class="cls-6" d="M123.01,51.39v12.64h4.63v-12.64h-4.63Z"/><path class="cls-3" d="M97.08,63.88h4.53v-12.47h-4.53v12.47Z"/></g></g></svg>