<?xml version="1.0" encoding="UTF-8"?><svg id="Layer_2" xmlns="http://www.w3.org/2000/svg" width="133.64" height="119.88" xmlns:xlink="http://www.w3.org/1999/xlink" viewBox="0 0 133.64 119.88"><defs><style>.cls-1{fill:url(#radial-gradient-4);}.cls-2{fill:url(#radial-gradient);}.cls-3{fill:url(#radial-gradient-2);}.cls-4{fill:url(#radial-gradient-3);}.cls-5{fill:url(#linear-gradient);}</style><linearGradient id="linear-gradient" x1="66.82" y1="114.74" x2="66.82" y2="73.69" gradientTransform="matrix(1, 0, 0, 1, 0, 0)" gradientUnits="userSpaceOnUse"><stop offset="0" stop-color="#bcbec0"/><stop offset="1" stop-color="#fff"/></linearGradient><radialGradient id="radial-gradient" cx="59.34" cy="47.69" fx="59.34" fy="47.69" r="53.94" gradientTransform="matrix(1, 0, 0, 1, 0, 0)" gradientUnits="userSpaceOnUse"><stop offset="0" stop-color="#fff200"/><stop offset="1" stop-color="#fbb040"/></radialGradient><radialGradient id="radial-gradient-2" cx="59.34" fx="59.34" r="53.94" xlink:href="#radial-gradient"/><radialGradient id="radial-gradient-3" cx="59.34" fx="59.34" xlink:href="#radial-gradient"/><radialGradient id="radial-gradient-4" cx="59.34" fx="59.34" xlink:href="#radial-gradient"/></defs><g id="Layer_1-2"><g id="Weather_Color"><path class="cls-5" d="M97.77,75.66c12.21,0,22.11,9.9,22.11,22.11s-9.9,22.11-22.2,22.11H24.81c-6.11,0-11.05-4.95-11.05-11.05,0-5.41,3.89-9.92,9.03-10.87l-.18-2.4c0-8.31,6.55-15.09,14.77-15.46,3.64-10.31,13.47-17.7,25.03-17.7s20.39,6.66,24.43,16.16c3.23-1.84,6.96-2.9,10.95-2.9Z"/><path class="cls-2" d="M133.64,75.26l-11.61,2.66c-2.92-3.46-6.75-6.13-11.12-7.65v-6.75l22.73,11.74Z"/><path class="cls-3" d="M0,58.38l24.93-5.72c-1.87,5.52-2.67,11.45-2.21,17.46L0,58.38Z"/><path class="cls-4" d="M25.54,13.6l21.67,13.58c-5.42,2.67-10.11,6.38-13.91,10.79l-7.76-24.37Z"/><path class="cls-2" d="M75.26,0l5.72,24.93c-5.52-1.87-11.45-2.67-17.46-2.21L75.26,0Z"/><path class="cls-2" d="M120.04,25.54l-13.58,21.67c-2.67-5.42-6.38-10.11-10.79-13.91l24.37-7.76Z"/><path class="cls-1" d="M66.82,31.45c19.54,0,35.37,15.84,35.37,35.37l-.06,2.05c-4.45,.07-8.62,1.27-12.23,3.34-4.66-10.96-15.52-18.65-28.19-18.65-13.34,0-24.68,8.53-28.88,20.43l-.66,.04c-.48-2.33-.73-4.74-.73-7.2,0-19.54,15.84-35.37,35.38-35.37Z"/></g></g></svg>